<svg width="40" height="40" viewBox="0 0 40 40" fill="none" xmlns="http://www.w3.org/2000/svg">
<path d="M4.99991 16.6033V10.1283C4.99991 9.36168 5.25713 8.72112 5.77158 8.20668C6.28602 7.69223 6.92602 7.43557 7.69158 7.43668H32.3082C33.0749 7.43668 33.7149 7.69335 34.2282 8.20668C34.7416 8.72001 34.9988 9.36057 34.9999 10.1283V16.6033H33.3332V10.1283C33.3332 9.87279 33.2266 9.63779 33.0132 9.42335C32.7988 9.21001 32.5632 9.10335 32.3066 9.10335H7.69324C7.43658 9.10335 7.20102 9.21001 6.98658 9.42335C6.77213 9.63668 6.66546 9.87168 6.66658 10.1283V16.6033H4.99991ZM7.69324 29.1033C6.92546 29.1033 6.28491 28.8461 5.77158 28.3317C5.25824 27.8172 5.00102 27.1767 4.99991 26.41V18.27H6.66658V26.41C6.66658 26.6667 6.77324 26.9017 6.98658 27.115C7.19991 27.3283 7.43491 27.4356 7.69158 27.4367H32.3082C32.5638 27.4367 32.7988 27.3295 33.0132 27.115C33.2277 26.9006 33.3344 26.6656 33.3332 26.41V18.27H34.9999V26.41C34.9999 27.1767 34.7432 27.8172 34.2299 28.3317C33.7166 28.8461 33.076 29.1033 32.3082 29.1033H7.69324ZM2.94824 32.4367V30.77H37.0516V32.4367H2.94824ZM4.99991 18.27V16.6033H13.3332C13.4888 16.6033 13.6366 16.6439 13.7766 16.725C13.9144 16.8061 14.021 16.9211 14.0966 17.07L16.7916 22.4533L22.5899 12.0517C22.6644 11.9083 22.7682 11.8083 22.9016 11.7517C23.0338 11.695 23.1777 11.6667 23.3332 11.6667C23.4888 11.6667 23.6366 11.695 23.7766 11.7517C23.9166 11.8083 24.0232 11.9145 24.0966 12.07L26.3632 16.6033H34.9999V18.27H26.1532C25.9121 18.27 25.6794 18.2039 25.4549 18.0717C25.2305 17.9406 25.0599 17.7545 24.9432 17.5133L23.2499 14.15L17.4199 24.485C17.3455 24.635 17.2388 24.7472 17.0999 24.8217C16.961 24.8961 16.8132 24.9339 16.6566 24.935C16.4999 24.9361 16.3544 24.8956 16.2199 24.8133C16.0855 24.7311 15.9799 24.6156 15.9032 24.4667L12.8032 18.2667L4.99991 18.27Z" fill="#32328C"/>
<path d="M4.99991 16.6033V10.1283C4.99991 9.36168 5.25713 8.72112 5.77158 8.20668C6.28602 7.69223 6.92602 7.43557 7.69157 7.43668H32.3082C33.0749 7.43668 33.7149 7.69335 34.2282 8.20668C34.7416 8.72001 34.9988 9.36057 34.9999 10.1283V16.6033M4.99991 16.6033H6.66658V10.1283C6.66546 9.87168 6.77213 9.63668 6.98658 9.42335C7.20102 9.21001 7.43658 9.10335 7.69324 9.10335H32.3066C32.5632 9.10335 32.7988 9.21001 33.0132 9.42335C33.2266 9.63779 33.3332 9.87279 33.3332 10.1283V16.6033H34.9999M4.99991 16.6033V18.27M4.99991 16.6033H13.3332C13.4888 16.6033 13.6366 16.6439 13.7766 16.725C13.9144 16.8061 14.021 16.9211 14.0966 17.07L16.7916 22.4533L22.5899 12.0517C22.6644 11.9083 22.7682 11.8083 22.9016 11.7517C23.0338 11.695 23.1777 11.6667 23.3332 11.6667C23.4888 11.6667 23.6366 11.695 23.7766 11.7517C23.9166 11.8083 24.0232 11.9145 24.0966 12.07L26.3632 16.6033H34.9999M34.9999 16.6033V18.27M4.99991 18.27V26.41C5.00102 27.1767 5.25824 27.8172 5.77158 28.3317C6.28491 28.8461 6.92546 29.1033 7.69324 29.1033H32.3082C33.076 29.1033 33.7166 28.8461 34.2299 28.3317C34.7432 27.8172 34.9999 27.1767 34.9999 26.41V18.27M4.99991 18.27H6.66658V26.41C6.66658 26.6667 6.77324 26.9017 6.98658 27.115C7.19991 27.3283 7.43491 27.4356 7.69157 27.4367H32.3082C32.5638 27.4367 32.7988 27.3295 33.0132 27.115C33.2277 26.9006 33.3344 26.6656 33.3332 26.41V18.27H34.9999M4.99991 18.27L12.8032 18.2667L15.9032 24.4667C15.9799 24.6156 16.0855 24.7311 16.2199 24.8133C16.3544 24.8956 16.4999 24.9361 16.6566 24.935C16.8132 24.9339 16.961 24.8961 17.0999 24.8217C17.2388 24.7472 17.3455 24.635 17.4199 24.485L23.2499 14.15L24.9432 17.5133C25.0599 17.7545 25.2305 17.9406 25.4549 18.0717C25.6794 18.2039 25.9121 18.27 26.1532 18.27H34.9999M2.94824 32.4367V30.77H37.0516V32.4367H2.94824Z" stroke="#32328C" stroke-width="0.5"/>
</svg>
