<svg width="464" height="20" viewBox="0 0 464 20" fill="none" xmlns="http://www.w3.org/2000/svg">
<path d="M10.0003 15L4.12226 18.09L5.24526 11.545L0.489258 6.91L7.06126 5.955L10.0003 0L12.9393 5.955L19.5113 6.91L14.7553 11.545L15.8783 18.09L10.0003 15Z" fill="#009E4A"/>
<path d="M34.0003 15L28.1223 18.09L29.2453 11.545L24.4893 6.91L31.0613 5.955L34.0003 0L36.9393 5.955L43.5113 6.91L38.7553 11.545L39.8783 18.09L34.0003 15Z" fill="#009E4A"/>
<path d="M58.0003 15L52.1223 18.09L53.2453 11.545L48.4893 6.91L55.0613 5.955L58.0003 0L60.9393 5.955L67.5113 6.91L62.7553 11.545L63.8783 18.09L58.0003 15Z" fill="#009E4A"/>
<path d="M82.0003 15L76.1223 18.09L77.2453 11.545L72.4893 6.91L79.0613 5.955L82.0003 0L84.9393 5.955L91.5113 6.91L86.7553 11.545L87.8783 18.09L82.0003 15Z" fill="#009E4A"/>
<path d="M106 15L100.122 18.09L101.245 11.545L96.4893 6.91L103.061 5.955L106 0L108.939 5.955L115.511 6.91L110.755 11.545L111.878 18.09L106 15Z" fill="#009E4A"/>
</svg>
